{"asset":{"version":"2.0","generator":"THREE.GLTFExporter r168"},"scenes":[{"name":"AuxScene","nodes":[10]}],"scene":0,"nodes":[{"matrix":[0.82,0,0,0,0,1,0,0,0,0,0.58,0,0,1.15,0,1],"name":"Torso","mesh":0},{"matrix":[1,0,0,0,0,1.08,0,0,0,0,0.9,0,0,2.06,0,1],"name":"Helmet","mesh":1},{"matrix":[1,0,0,0,0,1,0,0,0,0,1,0,0,2.08,-0.31,1],"name":"Visor","mesh":2},{"matrix":[1,0,0,0,0,1,0,0,0,0,1,0,0,1.36,-0.36,1],"name":"Chest_Light","mesh":3},{"matrix":[0.9758974493306055,0.21822962308086932,0,0,-0.21822962308086932,0.9758974493306055,0,0,0,0,1,0,-0.5,1.17,0,1],"name":"Left_Arm","mesh":4},{"matrix":[1,0,0,0,0,1,0,0,0,0,1,0,-0.17,0.35,0,1],"name":"Left_Leg","mesh":5},{"matrix":[1,0,0,0,0,1,0,0,0,0,1,0,-0.17,-0.08,-0.07,1],"name":"Left_Boot","mesh":6},{"matrix":[0.9758974493306055,-0.21822962308086932,0,0,0.21822962308086932,0.9758974493306055,0,0,0,0,1,0,0.5,1.17,0,1],"name":"Right_Arm","mesh":7},{"matrix":[1,0,0,0,0,1,0,0,0,0,1,0,0.17,0.35,0,1],"name":"Right_Leg","mesh":8},{"matrix":[1,0,0,0,0,1,0,0,0,0,1,0,0.17,-0.08,-0.07,1],"name":"Right_Boot","mesh":9},{"name":"StudioCLTD_Temp_Player","children":[0,1,2,3,4,5,6,7,8,9]}],"bufferViews":[{"buffer":0,"byteOffset":0,"byteLength":7752,"target":34962,"byteStride":12},{"buffer":0,"byteOffset":7752,"byteLength":5168,"target":34962,"byteStride":8},{"buffer":0,"byteOffset":12920,"byteLength":7752,"target":34962,"byteStride":12},{"buffer":0,"byteOffset":20672,"byteLength":7128,"target":34963},{"buffer":0,"byteOffset":27800,"byteLength":5100,"target":34962,"byteStride":12},{"buffer":0,"byteOffset":32900,"byteLength":5100,"target":34962,"byteStride":12},{"buffer":0,"byteOffset":38000,"byteLength":3400,"target":34962,"byteStride":8},{"buffer":0,"byteOffset":41400,"byteLength":4320,"target":34963},{"buffer":0,"byteOffset":45720,"byteLength":288,"target":34962,"byteStride":12},{"buffer":0,"byteOffset":46008,"byteLength":288,"target":34962,"byteStride":12},{"buffer":0,"byteOffset":46296,"byteLength":192,"target":34962,"byteStride":8},{"buffer":0,"byteOffset":46488,"byteLength":72,"target":34963},{"buffer":0,"byteOffset":46560,"byteLength":288,"target":34962,"byteStride":12},{"buffer":0,"byteOffset":46848,"byteLength":288,"target":34962,"byteStride":12},{"buffer":0,"byteOffset":47136,"byteLength":192,"target":34962,"byteStride":8},{"buffer":0,"byteOffset":47328,"byteLength":72,"target":34963},{"buffer":0,"byteOffset":47400,"byteLength":4056,"target":34962,"byteStride":12},{"buffer":0,"byteOffset":51456,"byteLength":2704,"target":34962,"byteStride":8},{"buffer":0,"byteOffset":54160,"byteLength":4056,"target":34962,"byteStride":12},{"buffer":0,"byteOffset":58216,"byteLength":3600,"target":34963},{"buffer":0,"byteOffset":61816,"byteLength":4056,"target":34962,"byteStride":12},{"buffer":0,"byteOffset":65872,"byteLength":2704,"target":34962,"byteStride":8},{"buffer":0,"byteOffset":68576,"byteLength":4056,"target":34962,"byteStride":12},{"buffer":0,"byteOffset":72632,"byteLength":3600,"target":34963},{"buffer":0,"byteOffset":76232,"byteLength":288,"target":34962,"byteStride":12},{"buffer":0,"byteOffset":76520,"byteLength":288,"target":34962,"byteStride":12},{"buffer":0,"byteOffset":76808,"byteLength":192,"target":34962,"byteStride":8},{"buffer":0,"byteOffset":77000,"byteLength":72,"target":34963},{"buffer":0,"byteOffset":77072,"byteLength":4056,"target":34962,"byteStride":12},{"buffer":0,"byteOffset":81128,"byteLength":2704,"target":34962,"byteStride":8},{"buffer":0,"byteOffset":83832,"byteLength":4056,"target":34962,"byteStride":12},{"buffer":0,"byteOffset":87888,"byteLength":3600,"target":34963},{"buffer":0,"byteOffset":91488,"byteLength":4056,"target":34962,"byteStride":12},{"buffer":0,"byteOffset":95544,"byteLength":2704,"target":34962,"byteStride":8},{"buffer":0,"byteOffset":98248,"byteLength":4056,"target":34962,"byteStride":12},{"buffer":0,"byteOffset":102304,"byteLength":3600,"target":34963},{"buffer":0,"byteOffset":105904,"byteLength":288,"target":34962,"byteStride":12},{"buffer":0,"byteOffset":106192,"byteLength":288,"target":34962,"byteStride":12},{"buffer":0,"byteOffset":106480,"byteLength":192,"target":34962,"byteStride":8},{"buffer":0,"byteOffset":106672,"byteLength":72,"target":34963}],"buffers":[{"byteLength":106744,"uri":"data:application/octet-stream;base64,"}],"accessors":[{"bufferView":0,"componentType":5126,"count":646,"max":[0.4136192500591278,0.8949999809265137,0.41999998688697815],"min":[-0.4136192500591278,-0.8949999809265137,-0.41999998688697815],"type":"VEC3"},{"bufferView":1,"componentType":5126,"count":646,"max":[1,1],"min":[0,0],"type":"VEC2"},{"bufferView":2,"componentType":5126,"count":646,"max":[0.984805703163147,0.9987954497337341,0.9999979138374329],"min":[-0.984805703163147,-0.9987954497337341,-0.9999979138374329],"type":"VEC3"},{"bufferView":3,"componentType":5123,"count":3564,"max":[645],"min":[0],"type":"SCALAR"},{"bufferView":4,"componentType":5126,"count":425,"max":[0.3400000035762787,0.3400000035762787,0.3400000035762787],"min":[-0.3400000035762787,-0.3400000035762787,-0.3400000035762787],"type":"VEC3"},{"bufferView":5,"componentType":5126,"count":425,"max":[1,1,1],"min":[-1,-1,-1],"type":"VEC3"},{"bufferView":6,"componentType":5126,"count":425,"max":[1.0208333730697632,1],"min":[-0.02083333395421505,0],"type":"VEC2"},{"bufferView":7,"componentType":5123,"count":2160,"max":[424],"min":[0],"type":"SCALAR"},{"bufferView":8,"componentType":5126,"count":24,"max":[0.23999999463558197,0.05999999865889549,0.02500000037252903],"min":[-0.23999999463558197,-0.05999999865889549,-0.02500000037252903],"type":"VEC3"},{"bufferView":9,"componentType":5126,"count":24,"max":[1,1,1],"min":[-1,-1,-1],"type":"VEC3"},{"bufferView":10,"componentType":5126,"count":24,"max":[1,1],"min":[0,0],"type":"VEC2"},{"bufferView":11,"componentType":5123,"count":36,"max":[23],"min":[0],"type":"SCALAR"},{"bufferView":12,"componentType":5126,"count":24,"max":[0.10999999940395355,0.03999999910593033,0.019999999552965164],"min":[-0.10999999940395355,-0.03999999910593033,-0.019999999552965164],"type":"VEC3"},{"bufferView":13,"componentType":5126,"count":24,"max":[1,1,1],"min":[-1,-1,-1],"type":"VEC3"},{"bufferView":14,"componentType":5126,"count":24,"max":[1,1],"min":[0,0],"type":"VEC2"},{"bufferView":15,"componentType":5123,"count":36,"max":[23],"min":[0],"type":"SCALAR"},{"bufferView":16,"componentType":5126,"count":338,"max":[0.10999999940395355,0.4699999988079071,0.10999999940395355],"min":[-0.10999999940395355,-0.4699999988079071,-0.10999999940395355],"type":"VEC3"},{"bufferView":17,"componentType":5126,"count":338,"max":[1,1],"min":[0,0],"type":"VEC2"},{"bufferView":18,"componentType":5126,"count":338,"max":[0.9999991655349731,0.9978589415550232,0.9999991655349731],"min":[-0.9999991655349731,-0.9978589415550232,-0.9999991655349731],"type":"VEC3"},{"bufferView":19,"componentType":5123,"count":1800,"max":[337],"min":[0],"type":"SCALAR"},{"bufferView":20,"componentType":5126,"count":338,"max":[0.12999999523162842,0.5199999809265137,0.12999999523162842],"min":[-0.12999999523162842,-0.5199999809265137,-0.12999999523162842],"type":"VEC3"},{"bufferView":21,"componentType":5126,"count":338,"max":[1,1],"min":[0,0],"type":"VEC2"},{"bufferView":22,"componentType":5126,"count":338,"max":[0.9999990463256836,0.9978589415550232,0.9999990463256836],"min":[-0.9999990463256836,-0.9978589415550232,-0.9999990463256836],"type":"VEC3"},{"bufferView":23,"componentType":5123,"count":1800,"max":[337],"min":[0],"type":"SCALAR"},{"bufferView":24,"componentType":5126,"count":24,"max":[0.11999999731779099,0.05999999865889549,0.20999999344348907],"min":[-0.11999999731779099,-0.05999999865889549,-0.20999999344348907],"type":"VEC3"},{"bufferView":25,"componentType":5126,"count":24,"max":[1,1,1],"min":[-1,-1,-1],"type":"VEC3"},{"bufferView":26,"componentType":5126,"count":24,"max":[1,1],"min":[0,0],"type":"VEC2"},{"bufferView":27,"componentType":5123,"count":36,"max":[23],"min":[0],"type":"SCALAR"},{"bufferView":28,"componentType":5126,"count":338,"max":[0.10999999940395355,0.4699999988079071,0.10999999940395355],"min":[-0.10999999940395355,-0.4699999988079071,-0.10999999940395355],"type":"VEC3"},{"bufferView":29,"componentType":5126,"count":338,"max":[1,1],"min":[0,0],"type":"VEC2"},{"bufferView":30,"componentType":5126,"count":338,"max":[0.9999991655349731,0.9978589415550232,0.9999991655349731],"min":[-0.9999991655349731,-0.9978589415550232,-0.9999991655349731],"type":"VEC3"},{"bufferView":31,"componentType":5123,"count":1800,"max":[337],"min":[0],"type":"SCALAR"},{"bufferView":32,"componentType":5126,"count":338,"max":[0.12999999523162842,0.5199999809265137,0.12999999523162842],"min":[-0.12999999523162842,-0.5199999809265137,-0.12999999523162842],"type":"VEC3"},{"bufferView":33,"componentType":5126,"count":338,"max":[1,1],"min":[0,0],"type":"VEC2"},{"bufferView":34,"componentType":5126,"count":338,"max":[0.9999990463256836,0.9978589415550232,0.9999990463256836],"min":[-0.9999990463256836,-0.9978589415550232,-0.9999990463256836],"type":"VEC3"},{"bufferView":35,"componentType":5123,"count":1800,"max":[337],"min":[0],"type":"SCALAR"},{"bufferView":36,"componentType":5126,"count":24,"max":[0.11999999731779099,0.05999999865889549,0.20999999344348907],"min":[-0.11999999731779099,-0.05999999865889549,-0.20999999344348907],"type":"VEC3"},{"bufferView":37,"componentType":5126,"count":24,"max":[1,1,1],"min":[-1,-1,-1],"type":"VEC3"},{"bufferView":38,"componentType":5126,"count":24,"max":[1,1],"min":[0,0],"type":"VEC2"},{"bufferView":39,"componentType":5123,"count":36,"max":[23],"min":[0],"type":"SCALAR"}],"materials":[{"pbrMetallicRoughness":{"baseColorFactor":[0.012286488353353374,0.018500220124016656,0.03820437158923601,1],"metallicFactor":0.62,"roughnessFactor":0.44}},{"pbrMetallicRoughness":{"baseColorFactor":[1,0.0781874217970207,0.6866853124288865,1],"metallicFactor":0.1,"roughnessFactor":0.18},"emissiveFactor":[0.508881320845802,0.013702083043526807,0.2746773120495699],"extensions":{"KHR_materials_emissive_strength":{"emissiveStrength":1.4}}},{"pbrMetallicRoughness":{"baseColorFactor":[0.13563332964548108,0.9301108583738498,1,1],"metallicFactor":0.2,"roughnessFactor":0.24},"emissiveFactor":[0.010960094003125918,0.5711248294565854,0.7156935005005721],"extensions":{"KHR_materials_emissive_strength":{"emissiveStrength":1.8}}}],"meshes":[{"primitives":[{"mode":4,"attributes":{"POSITION":0,"TEXCOORD_0":1,"NORMAL":2},"indices":3,"material":0}]},{"primitives":[{"mode":4,"attributes":{"POSITION":4,"NORMAL":5,"TEXCOORD_0":6},"indices":7,"material":0}]},{"primitives":[{"mode":4,"attributes":{"POSITION":8,"NORMAL":9,"TEXCOORD_0":10},"indices":11,"material":1}]},{"primitives":[{"mode":4,"attributes":{"POSITION":12,"NORMAL":13,"TEXCOORD_0":14},"indices":15,"material":2}]},{"primitives":[{"mode":4,"attributes":{"POSITION":16,"TEXCOORD_0":17,"NORMAL":18},"indices":19,"material":0}]},{"primitives":[{"mode":4,"attributes":{"POSITION":20,"TEXCOORD_0":21,"NORMAL":22},"indices":23,"material":0}]},{"primitives":[{"mode":4,"attributes":{"POSITION":24,"NORMAL":25,"TEXCOORD_0":26},"indices":27,"material":0}]},{"primitives":[{"mode":4,"attributes":{"POSITION":28,"TEXCOORD_0":29,"NORMAL":30},"indices":31,"material":0}]},{"primitives":[{"mode":4,"attributes":{"POSITION":32,"TEXCOORD_0":33,"NORMAL":34},"indices":35,"material":0}]},{"primitives":[{"mode":4,"attributes":{"POSITION":36,"NORMAL":37,"TEXCOORD_0":38},"indices":39,"material":0}]}],"extensionsUsed":["KHR_materials_emissive_strength"]}