{"asset":{"version":"2.0","generator":"THREE.GLTFExporter r168"},"scenes":[{"name":"AuxScene","nodes":[12]}],"scene":0,"nodes":[{"matrix":[0.88,0,0,0,0,1.05,0,0,0,0,0.62,0,0,1.18,0,1],"name":"Villain_Torso","mesh":0},{"matrix":[1,0,0,0,0,1.02,0,0,0,0,0.9,0,0,2.16,0,1],"name":"Villain_Head","mesh":1},{"matrix":[1,0,0,0,0,1,0,0,0,0,1,0,0,2.19,-0.32,1],"name":"Villain_Visor","mesh":2},{"matrix":[1,0,0,0,0,1,0,0,0,0,1,0,0,1.35,-0.4,1],"name":"Villain_Core","mesh":3},{"matrix":[0.9393727128473789,0.34289780745545134,0,0,-0.34289780745545134,0.9393727128473789,0,0,0,0,1,0,-0.22,2.47,-0.02,1],"name":"Left_Horn","mesh":4},{"matrix":[0.9610554383107709,0.27635564856411376,0,0,-0.27635564856411376,0.9610554383107709,0,0,0,0,1,0,-0.58,1.16,0,1],"name":"Villain_Left_Arm","mesh":5},{"matrix":[1,0,0,0,0,1,0,0,0,0,1,0,-0.19,0.36,0,1],"name":"Villain_Left_Leg","mesh":6},{"matrix":[1,0,0,0,0,1,0,0,0,0,1,0,-0.19,-0.08,-0.08,1],"name":"Villain_Left_Boot","mesh":7},{"matrix":[0.9393727128473789,-0.34289780745545134,0,0,0.34289780745545134,0.9393727128473789,0,0,0,0,1,0,0.22,2.47,-0.02,1],"name":"Right_Horn","mesh":8},{"matrix":[0.9610554383107709,-0.27635564856411376,0,0,0.27635564856411376,0.9610554383107709,0,0,0,0,1,0,0.58,1.16,0,1],"name":"Villain_Right_Arm","mesh":9},{"matrix":[1,0,0,0,0,1,0,0,0,0,1,0,0.19,0.36,0,1],"name":"Villain_Right_Leg","mesh":10},{"matrix":[1,0,0,0,0,1,0,0,0,0,1,0,0.19,-0.08,-0.08,1],"name":"Villain_Right_Boot","mesh":11},{"name":"StudioCLTD_Temp_Villain","children":[0,1,2,3,4,5,6,7,8,9,10,11]}],"bufferViews":[{"buffer":0,"byteOffset":0,"byteLength":7752,"target":34962,"byteStride":12},{"buffer":0,"byteOffset":7752,"byteLength":5168,"target":34962,"byteStride":8},{"buffer":0,"byteOffset":12920,"byteLength":7752,"target":34962,"byteStride":12},{"buffer":0,"byteOffset":20672,"byteLength":7128,"target":34963},{"buffer":0,"byteOffset":27800,"byteLength":5100,"target":34962,"byteStride":12},{"buffer":0,"byteOffset":32900,"byteLength":5100,"target":34962,"byteStride":12},{"buffer":0,"byteOffset":38000,"byteLength":3400,"target":34962,"byteStride":8},{"buffer":0,"byteOffset":41400,"byteLength":4320,"target":34963},{"buffer":0,"byteOffset":45720,"byteLength":288,"target":34962,"byteStride":12},{"buffer":0,"byteOffset":46008,"byteLength":288,"target":34962,"byteStride":12},{"buffer":0,"byteOffset":46296,"byteLength":192,"target":34962,"byteStride":8},{"buffer":0,"byteOffset":46488,"byteLength":72,"target":34963},{"buffer":0,"byteOffset":46560,"byteLength":2244,"target":34962,"byteStride":12},{"buffer":0,"byteOffset":48804,"byteLength":2244,"target":34962,"byteStride":12},{"buffer":0,"byteOffset":51048,"byteLength":1496,"target":34962,"byteStride":8},{"buffer":0,"byteOffset":52544,"byteLength":1728,"target":34963},{"buffer":0,"byteOffset":54272,"byteLength":372,"target":34962,"byteStride":12},{"buffer":0,"byteOffset":54644,"byteLength":372,"target":34962,"byteStride":12},{"buffer":0,"byteOffset":55016,"byteLength":248,"target":34962,"byteStride":8},{"buffer":0,"byteOffset":55264,"byteLength":128,"target":34963},{"buffer":0,"byteOffset":55392,"byteLength":4056,"target":34962,"byteStride":12},{"buffer":0,"byteOffset":59448,"byteLength":2704,"target":34962,"byteStride":8},{"buffer":0,"byteOffset":62152,"byteLength":4056,"target":34962,"byteStride":12},{"buffer":0,"byteOffset":66208,"byteLength":3600,"target":34963},{"buffer":0,"byteOffset":69808,"byteLength":4056,"target":34962,"byteStride":12},{"buffer":0,"byteOffset":73864,"byteLength":2704,"target":34962,"byteStride":8},{"buffer":0,"byteOffset":76568,"byteLength":4056,"target":34962,"byteStride":12},{"buffer":0,"byteOffset":80624,"byteLength":3600,"target":34963},{"buffer":0,"byteOffset":84224,"byteLength":288,"target":34962,"byteStride":12},{"buffer":0,"byteOffset":84512,"byteLength":288,"target":34962,"byteStride":12},{"buffer":0,"byteOffset":84800,"byteLength":192,"target":34962,"byteStride":8},{"buffer":0,"byteOffset":84992,"byteLength":72,"target":34963},{"buffer":0,"byteOffset":85064,"byteLength":372,"target":34962,"byteStride":12},{"buffer":0,"byteOffset":85436,"byteLength":372,"target":34962,"byteStride":12},{"buffer":0,"byteOffset":85808,"byteLength":248,"target":34962,"byteStride":8},{"buffer":0,"byteOffset":86056,"byteLength":128,"target":34963},{"buffer":0,"byteOffset":86184,"byteLength":4056,"target":34962,"byteStride":12},{"buffer":0,"byteOffset":90240,"byteLength":2704,"target":34962,"byteStride":8},{"buffer":0,"byteOffset":92944,"byteLength":4056,"target":34962,"byteStride":12},{"buffer":0,"byteOffset":97000,"byteLength":3600,"target":34963},{"buffer":0,"byteOffset":100600,"byteLength":4056,"target":34962,"byteStride":12},{"buffer":0,"byteOffset":104656,"byteLength":2704,"target":34962,"byteStride":8},{"buffer":0,"byteOffset":107360,"byteLength":4056,"target":34962,"byteStride":12},{"buffer":0,"byteOffset":111416,"byteLength":3600,"target":34963},{"buffer":0,"byteOffset":115016,"byteLength":288,"target":34962,"byteStride":12},{"buffer":0,"byteOffset":115304,"byteLength":288,"target":34962,"byteStride":12},{"buffer":0,"byteOffset":115592,"byteLength":192,"target":34962,"byteStride":8},{"buffer":0,"byteOffset":115784,"byteLength":72,"target":34963}],"buffers":[{"byteLength":115856,"uri":"data:application/octet-stream;base64,"}],"accessors":[{"bufferView":0,"componentType":5126,"count":646,"max":[0.47270771861076355,1.0199999809265137,0.47999998927116394],"min":[-0.47270771861076355,-1.0199999809265137,-0.47999998927116394],"type":"VEC3"},{"bufferView":1,"componentType":5126,"count":646,"max":[1,1],"min":[0,0],"type":"VEC2"},{"bufferView":2,"componentType":5126,"count":646,"max":[0.984805703163147,0.9987954497337341,0.9999979138374329],"min":[-0.984805703163147,-0.9987954497337341,-0.9999979138374329],"type":"VEC3"},{"bufferView":3,"componentType":5123,"count":3564,"max":[645],"min":[0],"type":"SCALAR"},{"bufferView":4,"componentType":5126,"count":425,"max":[0.36000001430511475,0.36000001430511475,0.36000001430511475],"min":[-0.36000001430511475,-0.36000001430511475,-0.36000001430511475],"type":"VEC3"},{"bufferView":5,"componentType":5126,"count":425,"max":[1,1,1],"min":[-1,-1,-1],"type":"VEC3"},{"bufferView":6,"componentType":5126,"count":425,"max":[1.0208333730697632,1],"min":[-0.02083333395421505,0],"type":"VEC2"},{"bufferView":7,"componentType":5123,"count":2160,"max":[424],"min":[0],"type":"SCALAR"},{"bufferView":8,"componentType":5126,"count":24,"max":[0.25999999046325684,0.054999999701976776,0.029999999329447746],"min":[-0.25999999046325684,-0.054999999701976776,-0.029999999329447746],"type":"VEC3"},{"bufferView":9,"componentType":5126,"count":24,"max":[1,1,1],"min":[-1,-1,-1],"type":"VEC3"},{"bufferView":10,"componentType":5126,"count":24,"max":[1,1],"min":[0,0],"type":"VEC2"},{"bufferView":11,"componentType":5123,"count":36,"max":[23],"min":[0],"type":"SCALAR"},{"bufferView":12,"componentType":5126,"count":187,"max":[0.14000000059604645,0.14000000059604645,0.14000000059604645],"min":[-0.14000000059604645,-0.14000000059604645,-0.14000000059604645],"type":"VEC3"},{"bufferView":13,"componentType":5126,"count":187,"max":[1,1,1],"min":[-1,-1,-1],"type":"VEC3"},{"bufferView":14,"componentType":5126,"count":187,"max":[1.03125,1],"min":[-0.03125,0],"type":"VEC2"},{"bufferView":15,"componentType":5123,"count":864,"max":[186],"min":[0],"type":"SCALAR"},{"bufferView":16,"componentType":5126,"count":31,"max":[0.07799423485994339,0.22499999403953552,0.07999999821186066],"min":[-0.07799423485994339,-0.22499999403953552,-0.07207751274108887],"type":"VEC3"},{"bufferView":17,"componentType":5126,"count":31,"max":[0.9598774909973145,0.1750333309173584,0.9845625162124634],"min":[-0.9598774909973145,-1,-0.8870601654052734],"type":"VEC3"},{"bufferView":18,"componentType":5126,"count":31,"max":[1,1],"min":[0,0],"type":"VEC2"},{"bufferView":19,"componentType":5123,"count":63,"max":[30],"min":[0],"type":"SCALAR"},{"bufferView":20,"componentType":5126,"count":338,"max":[0.11999999731779099,0.5400000214576721,0.11999999731779099],"min":[-0.11999999731779099,-0.5400000214576721,-0.11999999731779099],"type":"VEC3"},{"bufferView":21,"componentType":5126,"count":338,"max":[1,1],"min":[0,0],"type":"VEC2"},{"bufferView":22,"componentType":5126,"count":338,"max":[0.9999992847442627,0.9978589415550232,0.9999992847442627],"min":[-0.9999992847442627,-0.9978589415550232,-0.9999992847442627],"type":"VEC3"},{"bufferView":23,"componentType":5123,"count":1800,"max":[337],"min":[0],"type":"SCALAR"},{"bufferView":24,"componentType":5126,"count":338,"max":[0.15000000596046448,0.5699999928474426,0.15000000596046448],"min":[-0.15000000596046448,-0.5699999928474426,-0.15000000596046448],"type":"VEC3"},{"bufferView":25,"componentType":5126,"count":338,"max":[1,1],"min":[0,0],"type":"VEC2"},{"bufferView":26,"componentType":5126,"count":338,"max":[0.9999988675117493,0.9978589415550232,0.9999988675117493],"min":[-0.9999988675117493,-0.9978589415550232,-0.9999988675117493],"type":"VEC3"},{"bufferView":27,"componentType":5123,"count":1800,"max":[337],"min":[0],"type":"SCALAR"},{"bufferView":28,"componentType":5126,"count":24,"max":[0.14000000059604645,0.06499999761581421,0.23000000417232513],"min":[-0.14000000059604645,-0.06499999761581421,-0.23000000417232513],"type":"VEC3"},{"bufferView":29,"componentType":5126,"count":24,"max":[1,1,1],"min":[-1,-1,-1],"type":"VEC3"},{"bufferView":30,"componentType":5126,"count":24,"max":[1,1],"min":[0,0],"type":"VEC2"},{"bufferView":31,"componentType":5123,"count":36,"max":[23],"min":[0],"type":"SCALAR"},{"bufferView":32,"componentType":5126,"count":31,"max":[0.07799423485994339,0.22499999403953552,0.07999999821186066],"min":[-0.07799423485994339,-0.22499999403953552,-0.07207751274108887],"type":"VEC3"},{"bufferView":33,"componentType":5126,"count":31,"max":[0.9598774909973145,0.1750333309173584,0.9845625162124634],"min":[-0.9598774909973145,-1,-0.8870601654052734],"type":"VEC3"},{"bufferView":34,"componentType":5126,"count":31,"max":[1,1],"min":[0,0],"type":"VEC2"},{"bufferView":35,"componentType":5123,"count":63,"max":[30],"min":[0],"type":"SCALAR"},{"bufferView":36,"componentType":5126,"count":338,"max":[0.11999999731779099,0.5400000214576721,0.11999999731779099],"min":[-0.11999999731779099,-0.5400000214576721,-0.11999999731779099],"type":"VEC3"},{"bufferView":37,"componentType":5126,"count":338,"max":[1,1],"min":[0,0],"type":"VEC2"},{"bufferView":38,"componentType":5126,"count":338,"max":[0.9999992847442627,0.9978589415550232,0.9999992847442627],"min":[-0.9999992847442627,-0.9978589415550232,-0.9999992847442627],"type":"VEC3"},{"bufferView":39,"componentType":5123,"count":1800,"max":[337],"min":[0],"type":"SCALAR"},{"bufferView":40,"componentType":5126,"count":338,"max":[0.15000000596046448,0.5699999928474426,0.15000000596046448],"min":[-0.15000000596046448,-0.5699999928474426,-0.15000000596046448],"type":"VEC3"},{"bufferView":41,"componentType":5126,"count":338,"max":[1,1],"min":[0,0],"type":"VEC2"},{"bufferView":42,"componentType":5126,"count":338,"max":[0.9999988675117493,0.9978589415550232,0.9999988675117493],"min":[-0.9999988675117493,-0.9978589415550232,-0.9999988675117493],"type":"VEC3"},{"bufferView":43,"componentType":5123,"count":1800,"max":[337],"min":[0],"type":"SCALAR"},{"bufferView":44,"componentType":5126,"count":24,"max":[0.14000000059604645,0.06499999761581421,0.23000000417232513],"min":[-0.14000000059604645,-0.06499999761581421,-0.23000000417232513],"type":"VEC3"},{"bufferView":45,"componentType":5126,"count":24,"max":[1,1,1],"min":[-1,-1,-1],"type":"VEC3"},{"bufferView":46,"componentType":5126,"count":24,"max":[1,1],"min":[0,0],"type":"VEC2"},{"bufferView":47,"componentType":5123,"count":36,"max":[23],"min":[0],"type":"SCALAR"}],"materials":[{"pbrMetallicRoughness":{"baseColorFactor":[0.033104766565152086,0.0069954101845983935,0.015208514418949472,1],"metallicFactor":0.58,"roughnessFactor":0.48}},{"pbrMetallicRoughness":{"baseColorFactor":[1,0.035601314869097636,0.059511238155621766,1],"metallicFactor":0.1,"roughnessFactor":0.24},"emissiveFactor":[0.623960391667596,0.005181516700061659,0.02217388478862708],"extensions":{"KHR_materials_emissive_strength":{"emissiveStrength":1.8}}},{"pbrMetallicRoughness":{"baseColorFactor":[0.6866853124288865,0.55201140150344,0.3613067797729723,1],"metallicFactor":0.08,"roughnessFactor":0.38}}],"meshes":[{"primitives":[{"mode":4,"attributes":{"POSITION":0,"TEXCOORD_0":1,"NORMAL":2},"indices":3,"material":0}]},{"primitives":[{"mode":4,"attributes":{"POSITION":4,"NORMAL":5,"TEXCOORD_0":6},"indices":7,"material":0}]},{"primitives":[{"mode":4,"attributes":{"POSITION":8,"NORMAL":9,"TEXCOORD_0":10},"indices":11,"material":1}]},{"primitives":[{"mode":4,"attributes":{"POSITION":12,"NORMAL":13,"TEXCOORD_0":14},"indices":15,"material":1}]},{"primitives":[{"mode":4,"attributes":{"POSITION":16,"NORMAL":17,"TEXCOORD_0":18},"indices":19,"material":2}]},{"primitives":[{"mode":4,"attributes":{"POSITION":20,"TEXCOORD_0":21,"NORMAL":22},"indices":23,"material":0}]},{"primitives":[{"mode":4,"attributes":{"POSITION":24,"TEXCOORD_0":25,"NORMAL":26},"indices":27,"material":0}]},{"primitives":[{"mode":4,"attributes":{"POSITION":28,"NORMAL":29,"TEXCOORD_0":30},"indices":31,"material":0}]},{"primitives":[{"mode":4,"attributes":{"POSITION":32,"NORMAL":33,"TEXCOORD_0":34},"indices":35,"material":2}]},{"primitives":[{"mode":4,"attributes":{"POSITION":36,"TEXCOORD_0":37,"NORMAL":38},"indices":39,"material":0}]},{"primitives":[{"mode":4,"attributes":{"POSITION":40,"TEXCOORD_0":41,"NORMAL":42},"indices":43,"material":0}]},{"primitives":[{"mode":4,"attributes":{"POSITION":44,"NORMAL":45,"TEXCOORD_0":46},"indices":47,"material":0}]}],"extensionsUsed":["KHR_materials_emissive_strength"]}